<svg width="774" height="54" viewBox="0 0 774 54" fill="none" xmlns="http://www.w3.org/2000/svg">
<path d="M337.406 15.1461C337.406 17.1097 337.038 18.7916 336.302 20.1916C335.573 21.5857 334.576 22.6536 333.312 23.3951C332.055 24.1367 330.628 24.5075 329.032 24.5075C327.436 24.5075 326.007 24.1367 324.743 23.3951C323.485 22.6477 322.489 21.5769 321.753 20.1827C321.023 18.7827 320.659 17.1038 320.659 15.1461C320.659 13.1825 321.023 11.5036 321.753 10.1095C322.489 8.70945 323.485 7.63865 324.743 6.8971C326.007 6.15555 327.436 5.78477 329.032 5.78477C330.628 5.78477 332.055 6.15555 333.312 6.8971C334.576 7.63865 335.573 8.70945 336.302 10.1095C337.038 11.5036 337.406 13.1825 337.406 15.1461ZM334.087 15.1461C334.087 13.7639 333.87 12.5981 333.437 11.649C333.01 10.6938 332.417 9.97306 331.657 9.4866C330.898 8.99421 330.023 8.74801 329.032 8.74801C328.041 8.74801 327.166 8.99421 326.407 9.4866C325.648 9.97306 325.051 10.6938 324.618 11.649C324.191 12.5981 323.978 13.7639 323.978 15.1461C323.978 16.5284 324.191 17.6971 324.618 18.6522C325.051 19.6014 325.648 20.3221 326.407 20.8145C327.166 21.301 328.041 21.5442 329.032 21.5442C330.023 21.5442 330.898 21.301 331.657 20.8145C332.417 20.3221 333.01 19.6014 333.437 18.6522C333.87 17.6971 334.087 16.5284 334.087 15.1461ZM349.096 18.5098V10.59H352.318V24.2583H349.194V21.829H349.052C348.743 22.5943 348.236 23.2201 347.53 23.7066C346.83 24.193 345.967 24.4363 344.941 24.4363C344.045 24.4363 343.253 24.2375 342.565 23.8401C341.882 23.4367 341.349 22.8523 340.963 22.087C340.577 21.3158 340.385 20.3844 340.385 19.2929V10.59H343.606V18.7946C343.606 19.6607 343.843 20.3488 344.318 20.859C344.792 21.3692 345.415 21.6243 346.186 21.6243C346.661 21.6243 347.121 21.5086 347.566 21.2773C348.011 21.0459 348.376 20.7018 348.66 20.245C348.951 19.7823 349.096 19.2039 349.096 18.5098ZM355.63 24.2583V10.59H358.754V12.8681H358.896C359.145 12.0791 359.572 11.471 360.177 11.0439C360.788 10.6108 361.485 10.3943 362.268 10.3943C362.446 10.3943 362.645 10.4032 362.865 10.421C363.09 10.4328 363.277 10.4536 363.425 10.4832V13.4465C363.289 13.399 363.072 13.3575 362.776 13.3219C362.485 13.2804 362.203 13.2596 361.93 13.2596C361.343 13.2596 360.815 13.3872 360.346 13.6423C359.884 13.8914 359.519 14.2385 359.252 14.6834C358.985 15.1283 358.851 15.6415 358.851 16.2229V24.2583H355.63ZM387.523 12.1829H384.195C384.1 11.6371 383.925 11.1536 383.67 10.7324C383.415 10.3053 383.097 9.94339 382.717 9.64677C382.338 9.35015 381.905 9.12769 381.418 8.97938C380.938 8.82513 380.419 8.74801 379.861 8.74801C378.87 8.74801 377.992 8.99717 377.227 9.4955C376.462 9.98789 375.863 10.7116 375.429 11.6668C374.996 12.6159 374.78 13.7757 374.78 15.1461C374.78 16.5402 374.996 17.7149 375.429 18.67C375.868 19.6192 376.468 20.337 377.227 20.8234C377.992 21.304 378.867 21.5442 379.852 21.5442C380.398 21.5442 380.908 21.473 381.383 21.3307C381.863 21.1823 382.293 20.9658 382.673 20.6811C383.059 20.3963 383.382 20.0463 383.643 19.631C383.91 19.2158 384.094 18.7412 384.195 18.2072L387.523 18.225C387.398 19.0912 387.128 19.9039 386.713 20.6633C386.304 21.4226 385.767 22.093 385.102 22.6743C384.438 23.2498 383.661 23.7007 382.771 24.0269C381.881 24.3473 380.893 24.5075 379.808 24.5075C378.206 24.5075 376.776 24.1367 375.518 23.3951C374.261 22.6536 373.27 21.5828 372.546 20.1827C371.823 18.7827 371.461 17.1038 371.461 15.1461C371.461 13.1825 371.826 11.5036 372.555 10.1095C373.285 8.70945 374.279 7.63865 375.536 6.8971C376.794 6.15555 378.218 5.78477 379.808 5.78477C380.822 5.78477 381.765 5.92715 382.637 6.21191C383.509 6.49666 384.287 6.9149 384.969 7.46661C385.651 8.01239 386.212 8.68276 386.651 9.4777C387.096 10.2667 387.386 11.1684 387.523 12.1829ZM393.625 6.03394V24.2583H390.404V6.03394H393.625ZM396.937 24.2583V10.59H400.159V24.2583H396.937ZM398.557 8.65013C398.047 8.65013 397.608 8.48105 397.24 8.14291C396.872 7.79883 396.688 7.38652 396.688 6.906C396.688 6.41954 396.872 6.00724 397.24 5.66909C397.608 5.32501 398.047 5.15297 398.557 5.15297C399.073 5.15297 399.512 5.32501 399.874 5.66909C400.242 6.00724 400.426 6.41954 400.426 6.906C400.426 7.38652 400.242 7.79883 399.874 8.14291C399.512 8.48105 399.073 8.65013 398.557 8.65013ZM409.522 24.5253C408.152 24.5253 406.968 24.2405 405.972 23.671C404.981 23.0955 404.219 22.2828 403.685 21.2328C403.151 20.1768 402.884 18.934 402.884 17.5043C402.884 16.0983 403.151 14.8643 403.685 13.8024C404.225 12.7346 404.978 11.9041 405.945 11.3108C406.912 10.7116 408.048 10.4121 409.353 10.4121C410.196 10.4121 410.991 10.5485 411.738 10.8214C412.492 11.0883 413.156 11.5036 413.731 12.0672C414.313 12.6308 414.77 13.3486 415.102 14.2207C415.434 15.0868 415.6 16.119 415.6 17.3174V18.3051H404.397V16.1339H412.512C412.506 15.5169 412.373 14.9681 412.112 14.4876C411.851 14.0012 411.486 13.6185 411.017 13.3397C410.555 13.0609 410.015 12.9215 409.398 12.9215C408.739 12.9215 408.161 13.0816 407.663 13.402C407.164 13.7164 406.776 14.1317 406.497 14.6478C406.224 15.158 406.085 15.7186 406.079 16.3296V18.225C406.079 19.02 406.224 19.7022 406.515 20.2717C406.805 20.8353 407.212 21.2684 407.734 21.5709C408.256 21.8675 408.867 22.0158 409.567 22.0158C410.035 22.0158 410.46 21.9506 410.839 21.8201C411.219 21.6836 411.548 21.4849 411.827 21.2239C412.106 20.9628 412.316 20.6395 412.459 20.2539L415.467 20.5921C415.277 21.387 414.915 22.0811 414.381 22.6743C413.853 23.2617 413.177 23.7185 412.352 24.0447C411.527 24.3651 410.584 24.5253 409.522 24.5253ZM421.547 16.2495V24.2583H418.325V10.59H421.404V12.9126H421.564C421.879 12.1473 422.38 11.5392 423.068 11.0883C423.762 10.6375 424.62 10.4121 425.64 10.4121C426.583 10.4121 427.405 10.6138 428.105 11.0172C428.811 11.4206 429.357 12.0049 429.742 12.7702C430.134 13.5355 430.327 14.4639 430.321 15.5555V24.2583H427.099V16.0538C427.099 15.1402 426.862 14.4253 426.387 13.9092C425.919 13.3931 425.269 13.135 424.439 13.135C423.875 13.135 423.374 13.2596 422.935 13.5088C422.502 13.752 422.161 14.105 421.911 14.5677C421.668 15.0304 421.547 15.591 421.547 16.2495ZM440.421 10.59V13.0816H432.563V10.59H440.421ZM434.503 7.31534H437.724V20.1471C437.724 20.5802 437.79 20.9124 437.92 21.1438C438.056 21.3692 438.234 21.5235 438.454 21.6065C438.673 21.6896 438.917 21.7311 439.184 21.7311C439.385 21.7311 439.569 21.7163 439.735 21.6866C439.907 21.6569 440.038 21.6302 440.127 21.6065L440.67 24.1248C440.498 24.1841 440.251 24.2494 439.931 24.3206C439.617 24.3918 439.231 24.4333 438.774 24.4452C437.967 24.4689 437.241 24.3473 436.594 24.0803C435.947 23.8074 435.434 23.3862 435.055 22.8167C434.681 22.2472 434.497 21.5353 434.503 20.6811V7.31534ZM453.722 14.2029L450.785 14.5232C450.702 14.2266 450.557 13.9478 450.349 13.6867C450.147 13.4257 449.875 13.2151 449.53 13.0549C449.186 12.8948 448.765 12.8147 448.267 12.8147C447.597 12.8147 447.033 12.96 446.576 13.2507C446.125 13.5414 445.903 13.9181 445.909 14.3808C445.903 14.7783 446.048 15.1016 446.345 15.3508C446.647 15.5999 447.146 15.8046 447.84 15.9648L450.171 16.4631C451.464 16.7419 452.426 17.1839 453.054 17.789C453.689 18.3941 454.009 19.1861 454.015 20.1649C454.009 21.0251 453.757 21.7845 453.259 22.443C452.767 23.0955 452.081 23.6057 451.203 23.9735C450.325 24.3414 449.317 24.5253 448.178 24.5253C446.505 24.5253 445.158 24.1752 444.138 23.4752C443.118 22.7693 442.509 21.7875 442.314 20.5298L445.455 20.2272C445.597 20.8442 445.9 21.3099 446.363 21.6243C446.825 21.9387 447.427 22.0959 448.169 22.0959C448.934 22.0959 449.548 21.9387 450.011 21.6243C450.48 21.3099 450.714 20.9213 450.714 20.4586C450.714 20.0671 450.563 19.7437 450.26 19.4886C449.964 19.2335 449.501 19.0378 448.872 18.9013L446.541 18.4119C445.229 18.139 444.26 17.6793 443.631 17.0326C443.002 16.3801 442.69 15.5555 442.696 14.5588C442.69 13.7164 442.919 12.9867 443.382 12.3697C443.85 11.7468 444.5 11.2663 445.33 10.9282C446.167 10.5841 447.131 10.4121 448.222 10.4121C449.824 10.4121 451.085 10.7532 452.004 11.4354C452.93 12.1176 453.502 13.0401 453.722 14.2029Z" fill="#4D4D4D"/>
<path d="M245.209 48.8269L242.995 40.7272H243.991L245.684 47.324H245.763L247.488 40.7272H248.595L250.319 47.324H250.398L252.091 40.7272H253.088L250.873 48.8269H249.861L248.073 42.3724H248.01L246.222 48.8269H245.209ZM256.165 48.9535C255.579 48.9535 255.074 48.8243 254.65 48.5659C254.228 48.3049 253.902 47.941 253.673 47.4743C253.446 47.005 253.333 46.4592 253.333 45.837C253.333 45.2147 253.446 44.6663 253.673 44.1917C253.902 43.7145 254.221 43.3427 254.63 43.0764C255.041 42.8075 255.521 42.673 256.07 42.673C256.386 42.673 256.699 42.7257 257.007 42.8312C257.316 42.9367 257.596 43.1081 257.849 43.3454C258.103 43.58 258.304 43.8911 258.455 44.2787C258.605 44.6663 258.68 45.1435 258.68 45.7104V46.1059H253.997V45.2991H257.731C257.731 44.9563 257.662 44.6505 257.525 44.3816C257.391 44.1126 257.198 43.9004 256.948 43.7448C256.7 43.5892 256.407 43.5115 256.07 43.5115C255.698 43.5115 255.376 43.6037 255.105 43.7883C254.836 43.9702 254.629 44.2075 254.484 44.5002C254.339 44.7929 254.266 45.1066 254.266 45.4415V45.9793C254.266 46.4381 254.345 46.827 254.504 47.1461C254.664 47.4624 254.887 47.7037 255.172 47.8698C255.457 48.0333 255.788 48.115 256.165 48.115C256.41 48.115 256.631 48.0807 256.829 48.0122C257.029 47.941 257.202 47.8355 257.347 47.6958C257.492 47.5534 257.604 47.3768 257.683 47.1658L258.585 47.4189C258.49 47.7248 258.331 47.9937 258.107 48.2258C257.882 48.4551 257.606 48.6344 257.276 48.7636C256.946 48.8902 256.576 48.9535 256.165 48.9535ZM264.166 45.1725V48.8269H263.232V40.7272H264.166V43.7013H264.245C264.387 43.3875 264.601 43.1384 264.885 42.9538C265.173 42.7666 265.555 42.673 266.032 42.673C266.446 42.673 266.809 42.7561 267.12 42.9222C267.431 43.0856 267.672 43.3374 267.844 43.6776C268.018 44.0151 268.105 44.4448 268.105 44.9669V48.8269H267.171V45.0302C267.171 44.5477 267.046 44.1746 266.796 43.9109C266.548 43.6446 266.204 43.5115 265.763 43.5115C265.457 43.5115 265.183 43.5761 264.941 43.7053C264.701 43.8345 264.511 44.023 264.371 44.2708C264.234 44.5187 264.166 44.8192 264.166 45.1725ZM271.6 48.9693C271.215 48.9693 270.866 48.8968 270.552 48.7518C270.238 48.6041 269.989 48.3919 269.804 48.115C269.62 47.8355 269.527 47.498 269.527 47.1026C269.527 46.7545 269.596 46.4724 269.733 46.2562C269.87 46.0374 270.053 45.866 270.283 45.7421C270.512 45.6181 270.765 45.5258 271.042 45.4652C271.322 45.4019 271.602 45.3518 271.885 45.3149C272.254 45.2675 272.553 45.2319 272.782 45.2081C273.014 45.1818 273.183 45.1383 273.289 45.0776C273.397 45.017 273.451 44.9115 273.451 44.7612V44.7296C273.451 44.3394 273.344 44.0362 273.13 43.8199C272.919 43.6037 272.599 43.4956 272.169 43.4956C271.724 43.4956 271.374 43.5932 271.121 43.7883C270.868 43.9834 270.69 44.1917 270.587 44.4132L269.701 44.0968C269.86 43.7277 270.071 43.4403 270.334 43.2346C270.601 43.0263 270.891 42.8813 271.204 42.7996C271.521 42.7152 271.832 42.673 272.138 42.673C272.333 42.673 272.557 42.6967 272.81 42.7442C273.066 42.789 273.312 42.8826 273.55 43.025C273.79 43.1674 273.989 43.3823 274.147 43.6697C274.305 43.9571 274.384 44.342 274.384 44.8245V48.8269H273.451V48.0043H273.403C273.34 48.1361 273.235 48.2772 273.087 48.4275C272.939 48.5777 272.743 48.7056 272.498 48.8111C272.252 48.9165 271.953 48.9693 271.6 48.9693ZM271.742 48.1308C272.111 48.1308 272.422 48.0583 272.676 47.9133C272.931 47.7683 273.124 47.5811 273.253 47.3517C273.385 47.1223 273.451 46.8811 273.451 46.628V45.7737C273.411 45.8211 273.324 45.8647 273.19 45.9042C273.058 45.9411 272.905 45.9741 272.731 46.0031C272.56 46.0294 272.392 46.0532 272.229 46.0743C272.068 46.0927 271.937 46.1085 271.837 46.1217C271.595 46.1534 271.368 46.2048 271.157 46.276C270.949 46.3445 270.78 46.4487 270.651 46.5884C270.524 46.7255 270.461 46.9127 270.461 47.15C270.461 47.4743 270.581 47.7195 270.821 47.8856C271.063 48.0491 271.37 48.1308 271.742 48.1308ZM280.838 42.7521L278.591 48.8269H277.642L275.396 42.7521H276.408L278.085 47.593H278.148L279.825 42.7521H280.838ZM284.399 48.9535C283.814 48.9535 283.309 48.8243 282.884 48.5659C282.462 48.3049 282.137 47.941 281.907 47.4743C281.681 47.005 281.567 46.4592 281.567 45.837C281.567 45.2147 281.681 44.6663 281.907 44.1917C282.137 43.7145 282.456 43.3427 282.864 43.0764C283.276 42.8075 283.756 42.673 284.304 42.673C284.62 42.673 284.933 42.7257 285.241 42.8312C285.55 42.9367 285.831 43.1081 286.084 43.3454C286.337 43.58 286.539 43.8911 286.689 44.2787C286.839 44.6663 286.914 45.1435 286.914 45.7104V46.1059H282.232V45.2991H285.965C285.965 44.9563 285.897 44.6505 285.759 44.3816C285.625 44.1126 285.433 43.9004 285.182 43.7448C284.934 43.5892 284.642 43.5115 284.304 43.5115C283.932 43.5115 283.611 43.6037 283.339 43.7883C283.07 43.9702 282.863 44.2075 282.718 44.5002C282.573 44.7929 282.501 45.1066 282.501 45.4415V45.9793C282.501 46.4381 282.58 46.827 282.738 47.1461C282.899 47.4624 283.122 47.7037 283.406 47.8698C283.691 48.0333 284.022 48.115 284.399 48.115C284.644 48.115 284.866 48.0807 285.063 48.0122C285.264 47.941 285.437 47.8355 285.582 47.6958C285.727 47.5534 285.839 47.3768 285.918 47.1658L286.819 47.4189C286.724 47.7248 286.565 47.9937 286.341 48.2258C286.117 48.4551 285.84 48.6344 285.51 48.7636C285.181 48.8902 284.81 48.9535 284.399 48.9535ZM291.593 48.8269V40.7272H292.526V43.7171H292.606C292.674 43.6117 292.769 43.4772 292.89 43.3137C293.014 43.1476 293.191 43 293.42 42.8708C293.652 42.7389 293.966 42.673 294.361 42.673C294.873 42.673 295.324 42.8009 295.714 43.0566C296.104 43.3124 296.409 43.6749 296.628 44.1443C296.847 44.6136 296.956 45.1673 296.956 45.8053C296.956 46.4487 296.847 47.0063 296.628 47.4783C296.409 47.9476 296.106 48.3114 295.718 48.5698C295.33 48.8256 294.884 48.9535 294.377 48.9535C293.987 48.9535 293.675 48.8889 293.44 48.7597C293.205 48.6278 293.025 48.4789 292.898 48.3128C292.772 48.144 292.674 48.0043 292.606 47.8935H292.495V48.8269H291.593ZM292.511 45.7895C292.511 46.2483 292.578 46.653 292.712 47.0037C292.847 47.3517 293.043 47.6246 293.302 47.8223C293.56 48.0175 293.876 48.115 294.251 48.115C294.641 48.115 294.967 48.0122 295.228 47.8065C295.491 47.5982 295.689 47.3188 295.821 46.9681C295.955 46.6148 296.023 46.2219 296.023 45.7895C296.023 45.3624 295.957 44.9774 295.825 44.6347C295.696 44.2893 295.499 44.0164 295.236 43.816C294.975 43.613 294.646 43.5115 294.251 43.5115C293.871 43.5115 293.552 43.6077 293.294 43.8002C293.035 43.99 292.84 44.2563 292.708 44.5991C292.577 44.9392 292.511 45.336 292.511 45.7895ZM300.931 48.9535C300.345 48.9535 299.84 48.8243 299.416 48.5659C298.994 48.3049 298.668 47.941 298.439 47.4743C298.212 47.005 298.099 46.4592 298.099 45.837C298.099 45.2147 298.212 44.6663 298.439 44.1917C298.668 43.7145 298.987 43.3427 299.396 43.0764C299.807 42.8075 300.287 42.673 300.836 42.673C301.152 42.673 301.465 42.7257 301.773 42.8312C302.082 42.9367 302.362 43.1081 302.615 43.3454C302.869 43.58 303.07 43.8911 303.221 44.2787C303.371 44.6663 303.446 45.1435 303.446 45.7104V46.1059H298.763V45.2991H302.497C302.497 44.9563 302.428 44.6505 302.291 44.3816C302.157 44.1126 301.964 43.9004 301.714 43.7448C301.466 43.5892 301.173 43.5115 300.836 43.5115C300.464 43.5115 300.142 43.6037 299.871 43.7883C299.602 43.9702 299.395 44.2075 299.25 44.5002C299.105 44.7929 299.032 45.1066 299.032 45.4415V45.9793C299.032 46.4381 299.111 46.827 299.27 47.1461C299.43 47.4624 299.653 47.7037 299.938 47.8698C300.223 48.0333 300.554 48.115 300.931 48.115C301.176 48.115 301.397 48.0807 301.595 48.0122C301.795 47.941 301.968 47.8355 302.113 47.6958C302.258 47.5534 302.37 47.3768 302.449 47.1658L303.351 47.4189C303.256 47.7248 303.097 47.9937 302.873 48.2258C302.648 48.4551 302.372 48.6344 302.042 48.7636C301.712 48.8902 301.342 48.9535 300.931 48.9535ZM307.413 48.9535C306.827 48.9535 306.323 48.8243 305.898 48.5659C305.476 48.3049 305.151 47.941 304.921 47.4743C304.694 47.005 304.581 46.4592 304.581 45.837C304.581 45.2147 304.694 44.6663 304.921 44.1917C305.151 43.7145 305.47 43.3427 305.878 43.0764C306.29 42.8075 306.769 42.673 307.318 42.673C307.634 42.673 307.947 42.7257 308.255 42.8312C308.564 42.9367 308.844 43.1081 309.098 43.3454C309.351 43.58 309.552 43.8911 309.703 44.2787C309.853 44.6663 309.928 45.1435 309.928 45.7104V46.1059H305.245V45.2991H308.979C308.979 44.9563 308.91 44.6505 308.773 44.3816C308.639 44.1126 308.446 43.9004 308.196 43.7448C307.948 43.5892 307.655 43.5115 307.318 43.5115C306.946 43.5115 306.624 43.6037 306.353 43.7883C306.084 43.9702 305.877 44.2075 305.732 44.5002C305.587 44.7929 305.514 45.1066 305.514 45.4415V45.9793C305.514 46.4381 305.594 46.827 305.752 47.1461C305.913 47.4624 306.135 47.7037 306.42 47.8698C306.705 48.0333 307.036 48.115 307.413 48.115C307.658 48.115 307.879 48.0807 308.077 48.0122C308.278 47.941 308.45 47.8355 308.595 47.6958C308.74 47.5534 308.852 47.3768 308.931 47.1658L309.833 47.4189C309.738 47.7248 309.579 47.9937 309.355 48.2258C309.131 48.4551 308.854 48.6344 308.524 48.7636C308.195 48.8902 307.824 48.9535 307.413 48.9535ZM312.281 45.1725V48.8269H311.348V42.7521H312.25V43.7013H312.329C312.471 43.3928 312.687 43.145 312.977 42.9578C313.267 42.7679 313.642 42.673 314.101 42.673C314.512 42.673 314.872 42.7574 315.18 42.9261C315.489 43.0922 315.729 43.3454 315.9 43.6855C316.071 44.023 316.157 44.4501 316.157 44.9669V48.8269H315.224V45.0302C315.224 44.5529 315.1 44.1812 314.852 43.9149C314.604 43.6459 314.264 43.5115 313.832 43.5115C313.534 43.5115 313.267 43.5761 313.033 43.7053C312.801 43.8345 312.617 44.023 312.483 44.2708C312.349 44.5187 312.281 44.8192 312.281 45.1725ZM322.371 48.8269L320.52 42.7521H321.501L322.814 47.4031H322.878L324.175 42.7521H325.171L326.453 47.3873H326.516L327.829 42.7521H328.81L326.959 48.8269H326.042L324.713 44.1601H324.618L323.289 48.8269H322.371ZM332.305 48.9535C331.757 48.9535 331.276 48.8229 330.862 48.5619C330.45 48.3009 330.129 47.9357 329.897 47.4664C329.667 46.9971 329.553 46.4487 329.553 45.8211C329.553 45.1884 329.667 44.636 329.897 44.164C330.129 43.6921 330.45 43.3256 330.862 43.0646C331.276 42.8035 331.757 42.673 332.305 42.673C332.854 42.673 333.333 42.8035 333.745 43.0646C334.159 43.3256 334.48 43.6921 334.71 44.164C334.942 44.636 335.058 45.1884 335.058 45.8211C335.058 46.4487 334.942 46.9971 334.71 47.4664C334.48 47.9357 334.159 48.3009 333.745 48.5619C333.333 48.8229 332.854 48.9535 332.305 48.9535ZM332.305 48.115C332.722 48.115 333.065 48.0082 333.333 47.7947C333.602 47.5811 333.801 47.3003 333.931 46.9523C334.06 46.6042 334.124 46.2272 334.124 45.8211C334.124 45.4151 334.06 45.0368 333.931 44.6861C333.801 44.3354 333.602 44.052 333.333 43.8358C333.065 43.6196 332.722 43.5115 332.305 43.5115C331.889 43.5115 331.546 43.6196 331.277 43.8358C331.008 44.052 330.809 44.3354 330.68 44.6861C330.551 45.0368 330.486 45.4151 330.486 45.8211C330.486 46.2272 330.551 46.6042 330.68 46.9523C330.809 47.3003 331.008 47.5811 331.277 47.7947C331.546 48.0082 331.889 48.115 332.305 48.115ZM336.483 48.8269V42.7521H337.384V43.6697H337.448C337.558 43.3691 337.759 43.1252 338.049 42.938C338.339 42.7508 338.666 42.6572 339.03 42.6572C339.098 42.6572 339.184 42.6585 339.287 42.6612C339.389 42.6638 339.467 42.6677 339.52 42.673V43.6222C339.488 43.6143 339.416 43.6024 339.302 43.5866C339.192 43.5682 339.074 43.5589 338.95 43.5589C338.655 43.5589 338.392 43.6209 338.159 43.7448C337.93 43.8661 337.748 44.0348 337.614 44.251C337.482 44.4646 337.416 44.7085 337.416 44.9827V48.8269H336.483ZM341.496 46.6121L341.481 45.4573H341.67L344.328 42.7521H345.483L342.651 45.6155H342.572L341.496 46.6121ZM340.626 48.8269V40.7272H341.56V48.8269H340.626ZM344.486 48.8269L342.113 45.8211L342.778 45.1725L345.673 48.8269H344.486ZM346.684 48.8269V42.7521H347.618V48.8269H346.684ZM347.159 41.7397C346.977 41.7397 346.82 41.6777 346.688 41.5538C346.559 41.4298 346.495 41.2809 346.495 41.1069C346.495 40.9328 346.559 40.7839 346.688 40.66C346.82 40.536 346.977 40.4741 347.159 40.4741C347.341 40.4741 347.496 40.536 347.626 40.66C347.757 40.7839 347.823 40.9328 347.823 41.1069C347.823 41.2809 347.757 41.4298 347.626 41.5538C347.496 41.6777 347.341 41.7397 347.159 41.7397ZM350.261 45.1725V48.8269H349.327V42.7521H350.229V43.7013H350.308C350.45 43.3928 350.667 43.145 350.957 42.9578C351.247 42.7679 351.621 42.673 352.08 42.673C352.491 42.673 352.851 42.7574 353.16 42.9261C353.468 43.0922 353.708 43.3454 353.879 43.6855C354.051 44.023 354.136 44.4501 354.136 44.9669V48.8269H353.203V45.0302C353.203 44.5529 353.079 44.1812 352.831 43.9149C352.583 43.6459 352.243 43.5115 351.811 43.5115C351.513 43.5115 351.247 43.5761 351.012 43.7053C350.78 43.8345 350.597 44.023 350.462 44.2708C350.328 44.5187 350.261 44.8192 350.261 45.1725ZM358.294 51.2315C357.843 51.2315 357.456 51.1735 357.131 51.0575C356.807 50.9441 356.537 50.7938 356.321 50.6066C356.107 50.4221 355.937 50.2243 355.81 50.0134L356.554 49.4913C356.638 49.6021 356.745 49.7286 356.874 49.871C357.003 50.016 357.18 50.1413 357.404 50.2467C357.631 50.3548 357.928 50.4089 358.294 50.4089C358.785 50.4089 359.189 50.2902 359.508 50.0529C359.827 49.8156 359.987 49.4439 359.987 48.9376V47.7037H359.908C359.839 47.8144 359.742 47.9515 359.615 48.115C359.491 48.2758 359.312 48.4195 359.077 48.5461C358.845 48.67 358.531 48.732 358.136 48.732C357.645 48.732 357.205 48.616 356.815 48.384C356.427 48.1519 356.12 47.8144 355.893 47.3715C355.669 46.9285 355.557 46.3907 355.557 45.7579C355.557 45.1356 355.667 44.5938 355.886 44.1324C356.104 43.6683 356.409 43.3098 356.799 43.0566C357.189 42.8009 357.64 42.673 358.152 42.673C358.547 42.673 358.861 42.7389 359.093 42.8708C359.328 43 359.507 43.1476 359.631 43.3137C359.757 43.4772 359.855 43.6117 359.924 43.7171H360.018V42.7521H360.92V49.0009C360.92 49.523 360.802 49.9475 360.564 50.2744C360.33 50.604 360.013 50.8452 359.615 50.9982C359.22 51.1537 358.779 51.2315 358.294 51.2315ZM358.262 47.8935C358.637 47.8935 358.953 47.8078 359.212 47.6365C359.47 47.4651 359.666 47.2186 359.801 46.8969C359.935 46.5752 360.003 46.1903 360.003 45.7421C360.003 45.3044 359.937 44.9181 359.805 44.5833C359.673 44.2484 359.478 43.9861 359.22 43.7962C358.961 43.6064 358.642 43.5115 358.262 43.5115C357.867 43.5115 357.537 43.6117 357.274 43.812C357.013 44.0124 356.816 44.2814 356.684 44.6188C356.555 44.9563 356.491 45.3307 356.491 45.7421C356.491 46.1639 356.557 46.537 356.688 46.8613C356.823 47.183 357.021 47.4361 357.282 47.6206C357.545 47.8026 357.872 47.8935 358.262 47.8935ZM367.137 48.8269L365.286 42.7521H366.267L367.58 47.4031H367.644L368.941 42.7521H369.937L371.219 47.3873H371.282L372.595 42.7521H373.576L371.725 48.8269H370.808L369.479 44.1601H369.384L368.055 48.8269H367.137ZM374.81 48.8269V42.7521H375.743V48.8269H374.81ZM375.285 41.7397C375.103 41.7397 374.946 41.6777 374.814 41.5538C374.685 41.4298 374.62 41.2809 374.62 41.1069C374.62 40.9328 374.685 40.7839 374.814 40.66C374.946 40.536 375.103 40.4741 375.285 40.4741C375.466 40.4741 375.622 40.536 375.751 40.66C375.883 40.7839 375.949 40.9328 375.949 41.1069C375.949 41.2809 375.883 41.4298 375.751 41.5538C375.622 41.6777 375.466 41.7397 375.285 41.7397ZM380.095 42.7521V43.5431H376.947V42.7521H380.095ZM377.864 41.2967H378.797V47.0867C378.797 47.3504 378.836 47.5481 378.912 47.68C378.991 47.8092 379.091 47.8962 379.213 47.941C379.337 47.9832 379.467 48.0043 379.604 48.0043C379.707 48.0043 379.791 47.999 379.857 47.9885C379.923 47.9753 379.976 47.9647 380.016 47.9568L380.205 48.7953C380.142 48.819 380.054 48.8427 379.94 48.8665C379.827 48.8928 379.683 48.906 379.509 48.906C379.246 48.906 378.987 48.8493 378.734 48.7359C378.484 48.6226 378.275 48.4499 378.109 48.2178C377.946 47.9858 377.864 47.6932 377.864 47.3398V41.2967ZM382.563 45.1725V48.8269H381.629V40.7272H382.563V43.7013H382.642C382.784 43.3875 382.998 43.1384 383.282 42.9538C383.57 42.7666 383.952 42.673 384.429 42.673C384.843 42.673 385.206 42.7561 385.517 42.9222C385.828 43.0856 386.069 43.3374 386.241 43.6776C386.415 44.0151 386.502 44.4448 386.502 44.9669V48.8269H385.568V45.0302C385.568 44.5477 385.443 44.1746 385.193 43.9109C384.945 43.6446 384.601 43.5115 384.16 43.5115C383.855 43.5115 383.58 43.5761 383.338 43.7053C383.098 43.8345 382.908 44.023 382.768 44.2708C382.631 44.5187 382.563 44.8192 382.563 45.1725ZM395.645 44.1126L394.806 44.3499C394.753 44.2102 394.676 44.0744 394.573 43.9426C394.473 43.8081 394.335 43.6973 394.161 43.6103C393.987 43.5233 393.765 43.4798 393.493 43.4798C393.121 43.4798 392.811 43.5655 392.564 43.7369C392.318 43.9056 392.196 44.1205 392.196 44.3816C392.196 44.6136 392.28 44.7968 392.449 44.9313C392.618 45.0658 392.881 45.1778 393.24 45.2675L394.142 45.4889C394.685 45.6208 395.09 45.8225 395.356 46.094C395.622 46.363 395.755 46.7097 395.755 47.1342C395.755 47.4822 395.655 47.7933 395.455 48.0676C395.257 48.3418 394.98 48.558 394.624 48.7162C394.268 48.8744 393.854 48.9535 393.382 48.9535C392.763 48.9535 392.25 48.819 391.844 48.5501C391.438 48.2811 391.181 47.8883 391.073 47.3715L391.959 47.15C392.043 47.477 392.202 47.7222 392.437 47.8856C392.674 48.0491 392.984 48.1308 393.367 48.1308C393.802 48.1308 394.147 48.0386 394.403 47.854C394.661 47.6668 394.79 47.4427 394.79 47.1816C394.79 46.9707 394.716 46.7941 394.569 46.6517C394.421 46.5067 394.194 46.3986 393.889 46.3274L392.876 46.0901C392.32 45.9583 391.911 45.7539 391.65 45.4771C391.392 45.1976 391.262 44.8482 391.262 44.429C391.262 44.0862 391.359 43.783 391.551 43.5194C391.746 43.2557 392.011 43.0487 392.346 42.8984C392.684 42.7482 393.066 42.673 393.493 42.673C394.094 42.673 394.566 42.8048 394.909 43.0685C395.254 43.3322 395.5 43.6802 395.645 44.1126ZM399.628 48.9535C399.08 48.9535 398.599 48.8229 398.185 48.5619C397.773 48.3009 397.452 47.9357 397.22 47.4664C396.99 46.9971 396.876 46.4487 396.876 45.8211C396.876 45.1884 396.99 44.636 397.22 44.164C397.452 43.6921 397.773 43.3256 398.185 43.0646C398.599 42.8035 399.08 42.673 399.628 42.673C400.177 42.673 400.656 42.8035 401.068 43.0646C401.482 43.3256 401.803 43.6921 402.033 44.164C402.265 44.636 402.381 45.1884 402.381 45.8211C402.381 46.4487 402.265 46.9971 402.033 47.4664C401.803 47.9357 401.482 48.3009 401.068 48.5619C400.656 48.8229 400.177 48.9535 399.628 48.9535ZM399.628 48.115C400.045 48.115 400.388 48.0082 400.656 47.7947C400.925 47.5811 401.124 47.3003 401.254 46.9523C401.383 46.6042 401.447 46.2272 401.447 45.8211C401.447 45.4151 401.383 45.0368 401.254 44.6861C401.124 44.3354 400.925 44.052 400.656 43.8358C400.388 43.6196 400.045 43.5115 399.628 43.5115C399.212 43.5115 398.869 43.6196 398.6 43.8358C398.331 44.052 398.132 44.3354 398.003 44.6861C397.874 45.0368 397.809 45.4151 397.809 45.8211C397.809 46.2272 397.874 46.6042 398.003 46.9523C398.132 47.3003 398.331 47.5811 398.6 47.7947C398.869 48.0082 399.212 48.115 399.628 48.115ZM403.806 48.8269V42.7521H404.707V43.7013H404.786C404.913 43.377 405.117 43.1252 405.399 42.9459C405.682 42.764 406.02 42.673 406.416 42.673C406.817 42.673 407.15 42.764 407.416 42.9459C407.685 43.1252 407.895 43.377 408.045 43.7013H408.109C408.264 43.3875 408.497 43.1384 408.809 42.9538C409.12 42.7666 409.493 42.673 409.928 42.673C410.471 42.673 410.915 42.8431 411.261 43.1832C411.606 43.5207 411.779 44.0467 411.779 44.7612V48.8269H410.845V44.7612C410.845 44.313 410.723 43.9926 410.478 43.8002C410.232 43.6077 409.944 43.5115 409.611 43.5115C409.184 43.5115 408.853 43.6407 408.619 43.899C408.384 44.1548 408.267 44.4791 408.267 44.872V48.8269H407.318V44.6663C407.318 44.3209 407.205 44.0427 406.981 43.8318C406.757 43.6182 406.469 43.5115 406.115 43.5115C405.873 43.5115 405.646 43.5761 405.435 43.7053C405.227 43.8345 405.058 44.0137 404.929 44.2431C404.802 44.4699 404.739 44.7322 404.739 45.0302V48.8269H403.806ZM416.032 48.9535C415.447 48.9535 414.942 48.8243 414.518 48.5659C414.096 48.3049 413.77 47.941 413.541 47.4743C413.314 47.005 413.201 46.4592 413.201 45.837C413.201 45.2147 413.314 44.6663 413.541 44.1917C413.77 43.7145 414.089 43.3427 414.498 43.0764C414.909 42.8075 415.389 42.673 415.937 42.673C416.254 42.673 416.566 42.7257 416.875 42.8312C417.183 42.9367 417.464 43.1081 417.717 43.3454C417.97 43.58 418.172 43.8911 418.322 44.2787C418.472 44.6663 418.548 45.1435 418.548 45.7104V46.1059H413.865V45.2991H417.598C417.598 44.9563 417.53 44.6505 417.393 44.3816C417.258 44.1126 417.066 43.9004 416.815 43.7448C416.567 43.5892 416.275 43.5115 415.937 43.5115C415.566 43.5115 415.244 43.6037 414.972 43.7883C414.703 43.9702 414.496 44.2075 414.351 44.5002C414.206 44.7929 414.134 45.1066 414.134 45.4415V45.9793C414.134 46.4381 414.213 46.827 414.371 47.1461C414.532 47.4624 414.755 47.7037 415.04 47.8698C415.324 48.0333 415.655 48.115 416.032 48.115C416.277 48.115 416.499 48.0807 416.697 48.0122C416.897 47.941 417.07 47.8355 417.215 47.6958C417.36 47.5534 417.472 47.3768 417.551 47.1658L418.453 47.4189C418.358 47.7248 418.198 47.9937 417.974 48.2258C417.75 48.4551 417.473 48.6344 417.144 48.7636C416.814 48.8902 416.444 48.9535 416.032 48.9535ZM423.226 48.8269V40.7272H428.083V41.5973H424.207V44.3341H427.719V45.2042H424.207V48.8269H423.226ZM431.658 48.9535C431.11 48.9535 430.629 48.8229 430.215 48.5619C429.803 48.3009 429.482 47.9357 429.25 47.4664C429.02 46.9971 428.906 46.4487 428.906 45.8211C428.906 45.1884 429.02 44.636 429.25 44.164C429.482 43.6921 429.803 43.3256 430.215 43.0646C430.629 42.8035 431.11 42.673 431.658 42.673C432.207 42.673 432.686 42.8035 433.098 43.0646C433.512 43.3256 433.833 43.6921 434.063 44.164C434.295 44.636 434.411 45.1884 434.411 45.8211C434.411 46.4487 434.295 46.9971 434.063 47.4664C433.833 47.9357 433.512 48.3009 433.098 48.5619C432.686 48.8229 432.207 48.9535 431.658 48.9535ZM431.658 48.115C432.075 48.115 432.418 48.0082 432.686 47.7947C432.955 47.5811 433.154 47.3003 433.284 46.9523C433.413 46.6042 433.477 46.2272 433.477 45.8211C433.477 45.4151 433.413 45.0368 433.284 44.6861C433.154 44.3354 432.955 44.052 432.686 43.8358C432.418 43.6196 432.075 43.5115 431.658 43.5115C431.242 43.5115 430.899 43.6196 430.63 43.8358C430.361 44.052 430.162 44.3354 430.033 44.6861C429.904 45.0368 429.839 45.4151 429.839 45.8211C429.839 46.2272 429.904 46.6042 430.033 46.9523C430.162 47.3003 430.361 47.5811 430.63 47.7947C430.899 48.0082 431.242 48.115 431.658 48.115ZM435.836 48.8269V42.7521H436.737V43.6697H436.801C436.911 43.3691 437.112 43.1252 437.402 42.938C437.692 42.7508 438.019 42.6572 438.383 42.6572C438.451 42.6572 438.537 42.6585 438.64 42.6612C438.743 42.6638 438.82 42.6677 438.873 42.673V43.6222C438.841 43.6143 438.769 43.6024 438.656 43.5866C438.545 43.5682 438.427 43.5589 438.304 43.5589C438.008 43.5589 437.745 43.6209 437.513 43.7448C437.283 43.8661 437.101 44.0348 436.967 44.251C436.835 44.4646 436.769 44.7085 436.769 44.9827V48.8269H435.836ZM443.002 42.7521V43.5431H439.854V42.7521H443.002ZM440.771 41.2967H441.705V47.0867C441.705 47.3504 441.743 47.5481 441.819 47.68C441.899 47.8092 441.999 47.8962 442.12 47.941C442.244 47.9832 442.374 48.0043 442.512 48.0043C442.614 48.0043 442.699 47.999 442.765 47.9885C442.831 47.9753 442.883 47.9647 442.923 47.9568L443.113 48.7953C443.049 48.819 442.961 48.8427 442.848 48.8665C442.734 48.8928 442.591 48.906 442.417 48.906C442.153 48.906 441.895 48.8493 441.641 48.7359C441.391 48.6226 441.183 48.4499 441.017 48.2178C440.853 47.9858 440.771 47.6932 440.771 47.3398V41.2967ZM448.234 46.3432V42.7521H449.168V48.8269H448.234V47.7986H448.171C448.029 48.1071 447.807 48.3694 447.507 48.5857C447.206 48.7992 446.826 48.906 446.368 48.906C445.988 48.906 445.65 48.8229 445.355 48.6568C445.06 48.4881 444.828 48.235 444.659 47.8975C444.49 47.5574 444.406 47.1289 444.406 46.6121V42.7521H445.339V46.5489C445.339 46.9918 445.463 47.3451 445.711 47.6088C445.962 47.8724 446.281 48.0043 446.668 48.0043C446.9 48.0043 447.136 47.945 447.376 47.8263C447.619 47.7077 447.822 47.5257 447.985 47.2805C448.151 47.0353 448.234 46.7229 448.234 46.3432ZM451.811 45.1725V48.8269H450.877V42.7521H451.779V43.7013H451.858C452 43.3928 452.217 43.145 452.507 42.9578C452.797 42.7679 453.171 42.673 453.63 42.673C454.041 42.673 454.401 42.7574 454.71 42.9261C455.018 43.0922 455.258 43.3454 455.429 43.6855C455.601 44.023 455.686 44.4501 455.686 44.9669V48.8269H454.753V45.0302C454.753 44.5529 454.629 44.1812 454.381 43.9149C454.134 43.6459 453.793 43.5115 453.361 43.5115C453.063 43.5115 452.797 43.5761 452.562 43.7053C452.33 43.8345 452.147 44.023 452.012 44.2708C451.878 44.5187 451.811 44.8192 451.811 45.1725ZM459.939 48.9535C459.354 48.9535 458.849 48.8243 458.424 48.5659C458.002 48.3049 457.677 47.941 457.447 47.4743C457.221 47.005 457.107 46.4592 457.107 45.837C457.107 45.2147 457.221 44.6663 457.447 44.1917C457.677 43.7145 457.996 43.3427 458.405 43.0764C458.816 42.8075 459.296 42.673 459.844 42.673C460.161 42.673 460.473 42.7257 460.781 42.8312C461.09 42.9367 461.371 43.1081 461.624 43.3454C461.877 43.58 462.079 43.8911 462.229 44.2787C462.379 44.6663 462.454 45.1435 462.454 45.7104V46.1059H457.772V45.2991H461.505C461.505 44.9563 461.437 44.6505 461.3 44.3816C461.165 44.1126 460.973 43.9004 460.722 43.7448C460.474 43.5892 460.182 43.5115 459.844 43.5115C459.472 43.5115 459.151 43.6037 458.879 43.7883C458.61 43.9702 458.403 44.2075 458.258 44.5002C458.113 44.7929 458.041 45.1066 458.041 45.4415V45.9793C458.041 46.4381 458.12 46.827 458.278 47.1461C458.439 47.4624 458.662 47.7037 458.946 47.8698C459.231 48.0333 459.562 48.115 459.939 48.115C460.184 48.115 460.406 48.0807 460.603 48.0122C460.804 47.941 460.977 47.8355 461.122 47.6958C461.267 47.5534 461.379 47.3768 461.458 47.1658L462.359 47.4189C462.265 47.7248 462.105 47.9937 461.881 48.2258C461.657 48.4551 461.38 48.6344 461.05 48.7636C460.721 48.8902 460.35 48.9535 459.939 48.9535ZM469.522 48.9376C469.058 48.9376 468.64 48.8454 468.268 48.6608C467.896 48.4762 467.598 48.2231 467.374 47.9014C467.15 47.5798 467.028 47.2133 467.006 46.802H467.956C467.993 47.1685 468.159 47.4717 468.454 47.7116C468.752 47.9489 469.108 48.0676 469.522 48.0676C469.854 48.0676 470.149 47.9898 470.408 47.8342C470.669 47.6787 470.873 47.4651 471.021 47.1935C471.171 46.9193 471.246 46.6095 471.246 46.2641C471.246 45.9108 471.168 45.5957 471.013 45.3189C470.86 45.0394 470.649 44.8192 470.38 44.6584C470.111 44.4976 469.804 44.4158 469.459 44.4132C469.211 44.4106 468.956 44.4488 468.695 44.5279C468.434 44.6043 468.219 44.7032 468.051 44.8245L467.133 44.7138L467.623 40.7272H471.832V41.5973H468.446L468.161 43.9861H468.209C468.375 43.8542 468.583 43.7448 468.834 43.6578C469.084 43.5708 469.345 43.5273 469.617 43.5273C470.112 43.5273 470.554 43.6459 470.942 43.8832C471.332 44.1179 471.638 44.4396 471.859 44.8482C472.083 45.2569 472.195 45.7236 472.195 46.2483C472.195 46.7651 472.079 47.2265 471.847 47.6325C471.618 48.0359 471.302 48.3549 470.898 48.5896C470.495 48.8216 470.036 48.9376 469.522 48.9376ZM476.408 48.9376C475.813 48.9376 475.305 48.7755 474.886 48.4512C474.467 48.1242 474.146 47.651 473.925 47.0314C473.703 46.4091 473.592 45.6577 473.592 44.777C473.592 43.9017 473.703 43.1542 473.925 42.5346C474.149 41.9124 474.47 41.4378 474.89 41.1108C475.312 40.7812 475.818 40.6164 476.408 40.6164C476.999 40.6164 477.504 40.7812 477.923 41.1108C478.345 41.4378 478.667 41.9124 478.888 42.5346C479.112 43.1542 479.224 43.9017 479.224 44.777C479.224 45.6577 479.114 46.4091 478.892 47.0314C478.671 47.651 478.35 48.1242 477.931 48.4512C477.512 48.7755 477.004 48.9376 476.408 48.9376ZM476.408 48.0676C476.999 48.0676 477.458 47.7828 477.785 47.2133C478.112 46.6438 478.275 45.8317 478.275 44.777C478.275 44.0757 478.2 43.4785 478.05 42.9855C477.902 42.4924 477.688 42.1167 477.409 41.8583C477.132 41.5999 476.799 41.4707 476.408 41.4707C475.823 41.4707 475.366 41.7594 475.036 42.3368C474.706 42.9116 474.542 43.725 474.542 44.777C474.542 45.4784 474.615 46.0743 474.763 46.5647C474.911 47.0551 475.123 47.4282 475.4 47.6839C475.679 47.9397 476.016 48.0676 476.408 48.0676ZM483.369 48.9376C482.773 48.9376 482.266 48.7755 481.846 48.4512C481.427 48.1242 481.107 47.651 480.885 47.0314C480.664 46.4091 480.553 45.6577 480.553 44.777C480.553 43.9017 480.664 43.1542 480.885 42.5346C481.109 41.9124 481.431 41.4378 481.85 41.1108C482.272 40.7812 482.778 40.6164 483.369 40.6164C483.96 40.6164 484.465 40.7812 484.884 41.1108C485.306 41.4378 485.627 41.9124 485.849 42.5346C486.073 43.1542 486.185 43.9017 486.185 44.777C486.185 45.6577 486.074 46.4091 485.853 47.0314C485.631 47.651 485.311 48.1242 484.892 48.4512C484.473 48.7755 483.965 48.9376 483.369 48.9376ZM483.369 48.0676C483.96 48.0676 484.418 47.7828 484.745 47.2133C485.072 46.6438 485.236 45.8317 485.236 44.777C485.236 44.0757 485.161 43.4785 485.01 42.9855C484.863 42.4924 484.649 42.1167 484.37 41.8583C484.093 41.5999 483.759 41.4707 483.369 41.4707C482.784 41.4707 482.326 41.7594 481.997 42.3368C481.667 42.9116 481.502 43.725 481.502 44.777C481.502 45.4784 481.576 46.0743 481.724 46.5647C481.871 47.0551 482.084 47.4282 482.361 47.6839C482.64 47.9397 482.976 48.0676 483.369 48.0676ZM490.077 47.4031V42.1826H490.963V47.4031H490.077ZM487.909 45.2358V44.3499H493.13V45.2358H487.909ZM500.645 48.9535C500.076 48.9535 499.585 48.819 499.174 48.5501C498.763 48.2811 498.446 47.9107 498.225 47.4387C498.003 46.9668 497.893 46.4276 497.893 45.8211C497.893 45.2042 498.006 44.6597 498.233 44.1878C498.462 43.7132 498.781 43.3427 499.19 43.0764C499.601 42.8075 500.081 42.673 500.629 42.673C501.057 42.673 501.442 42.7521 501.784 42.9103C502.127 43.0685 502.408 43.29 502.627 43.5747C502.846 43.8595 502.981 44.1917 503.034 44.5714H502.101C502.029 44.2945 501.871 44.0493 501.626 43.8358C501.383 43.6196 501.057 43.5115 500.645 43.5115C500.281 43.5115 499.962 43.6064 499.688 43.7962C499.417 43.9834 499.204 44.2484 499.051 44.5912C498.901 44.9313 498.826 45.3307 498.826 45.7895C498.826 46.2588 498.9 46.6675 499.047 47.0155C499.198 47.3636 499.409 47.6338 499.68 47.8263C499.954 48.0188 500.276 48.115 500.645 48.115C500.888 48.115 501.108 48.0728 501.306 47.9885C501.503 47.9041 501.671 47.7828 501.808 47.6246C501.945 47.4664 502.043 47.2766 502.101 47.0551H503.034C502.981 47.4137 502.851 47.7367 502.642 48.0241C502.437 48.3088 502.164 48.5356 501.824 48.7043C501.486 48.8704 501.093 48.9535 500.645 48.9535ZM505.332 40.7272V48.8269H504.398V40.7272H505.332ZM507.041 48.8269V42.7521H507.975V48.8269H507.041ZM507.516 41.7397C507.334 41.7397 507.177 41.6777 507.045 41.5538C506.916 41.4298 506.852 41.2809 506.852 41.1069C506.852 40.9328 506.916 40.7839 507.045 40.66C507.177 40.536 507.334 40.4741 507.516 40.4741C507.698 40.4741 507.853 40.536 507.983 40.66C508.115 40.7839 508.18 40.9328 508.18 41.1069C508.18 41.2809 508.115 41.4298 507.983 41.5538C507.853 41.6777 507.698 41.7397 507.516 41.7397ZM512.231 48.9535C511.646 48.9535 511.141 48.8243 510.717 48.5659C510.295 48.3049 509.969 47.941 509.74 47.4743C509.513 47.005 509.4 46.4592 509.4 45.837C509.4 45.2147 509.513 44.6663 509.74 44.1917C509.969 43.7145 510.288 43.3427 510.697 43.0764C511.108 42.8075 511.588 42.673 512.136 42.673C512.453 42.673 512.765 42.7257 513.074 42.8312C513.382 42.9367 513.663 43.1081 513.916 43.3454C514.169 43.58 514.371 43.8911 514.521 44.2787C514.671 44.6663 514.747 45.1435 514.747 45.7104V46.1059H510.064V45.2991H513.797C513.797 44.9563 513.729 44.6505 513.592 44.3816C513.457 44.1126 513.265 43.9004 513.014 43.7448C512.767 43.5892 512.474 43.5115 512.136 43.5115C511.765 43.5115 511.443 43.6037 511.171 43.7883C510.902 43.9702 510.695 44.2075 510.55 44.5002C510.405 44.7929 510.333 45.1066 510.333 45.4415V45.9793C510.333 46.4381 510.412 46.827 510.57 47.1461C510.731 47.4624 510.954 47.7037 511.239 47.8698C511.523 48.0333 511.854 48.115 512.231 48.115C512.476 48.115 512.698 48.0807 512.896 48.0122C513.096 47.941 513.269 47.8355 513.414 47.6958C513.559 47.5534 513.671 47.3768 513.75 47.1658L514.652 47.4189C514.557 47.7248 514.397 47.9937 514.173 48.2258C513.949 48.4551 513.672 48.6344 513.343 48.7636C513.013 48.8902 512.643 48.9535 512.231 48.9535ZM517.1 45.1725V48.8269H516.166V42.7521H517.068V43.7013H517.147C517.29 43.3928 517.506 43.145 517.796 42.9578C518.086 42.7679 518.46 42.673 518.919 42.673C519.33 42.673 519.69 42.7574 519.999 42.9261C520.307 43.0922 520.547 43.3454 520.719 43.6855C520.89 44.023 520.976 44.4501 520.976 44.9669V48.8269H520.042V45.0302C520.042 44.5529 519.918 44.1812 519.67 43.9149C519.423 43.6459 519.083 43.5115 518.65 43.5115C518.352 43.5115 518.086 43.5761 517.851 43.7053C517.619 43.8345 517.436 44.023 517.301 44.2708C517.167 44.5187 517.1 44.8192 517.1 45.1725ZM525.323 42.7521V43.5431H522.175V42.7521H525.323ZM523.092 41.2967H524.026V47.0867C524.026 47.3504 524.064 47.5481 524.141 47.68C524.22 47.8092 524.32 47.8962 524.441 47.941C524.565 47.9832 524.696 48.0043 524.833 48.0043C524.935 48.0043 525.02 47.999 525.086 47.9885C525.152 47.9753 525.204 47.9647 525.244 47.9568L525.434 48.7953C525.371 48.819 525.282 48.8427 525.169 48.8665C525.055 48.8928 524.912 48.906 524.738 48.906C524.474 48.906 524.216 48.8493 523.963 48.7359C523.712 48.6226 523.504 48.4499 523.338 48.2178C523.174 47.9858 523.092 47.6932 523.092 47.3398V41.2967ZM530.921 44.1126L530.083 44.3499C530.03 44.2102 529.952 44.0744 529.849 43.9426C529.749 43.8081 529.612 43.6973 529.438 43.6103C529.264 43.5233 529.041 43.4798 528.77 43.4798C528.398 43.4798 528.088 43.5655 527.84 43.7369C527.595 43.9056 527.473 44.1205 527.473 44.3816C527.473 44.6136 527.557 44.7968 527.726 44.9313C527.894 45.0658 528.158 45.1778 528.517 45.2675L529.418 45.4889C529.962 45.6208 530.366 45.8225 530.633 46.094C530.899 46.363 531.032 46.7097 531.032 47.1342C531.032 47.4822 530.932 47.7933 530.731 48.0676C530.534 48.3418 530.257 48.558 529.901 48.7162C529.545 48.8744 529.131 48.9535 528.659 48.9535C528.039 48.9535 527.527 48.819 527.121 48.5501C526.715 48.2811 526.457 47.8883 526.349 47.3715L527.235 47.15C527.32 47.477 527.479 47.7222 527.714 47.8856C527.951 48.0491 528.261 48.1308 528.643 48.1308C529.078 48.1308 529.424 48.0386 529.679 47.854C529.938 47.6668 530.067 47.4427 530.067 47.1816C530.067 46.9707 529.993 46.7941 529.846 46.6517C529.698 46.5067 529.471 46.3986 529.165 46.3274L528.153 46.0901C527.596 45.9583 527.188 45.7539 526.927 45.4771C526.668 45.1976 526.539 44.8482 526.539 44.429C526.539 44.0862 526.635 43.783 526.828 43.5194C527.023 43.2557 527.288 43.0487 527.623 42.8984C527.96 42.7482 528.343 42.673 528.77 42.673C529.371 42.673 529.843 42.8048 530.186 43.0685C530.531 43.3322 530.776 43.6802 530.921 44.1126Z" fill="#717171"/>
</svg>
