<svg width="33" height="21" viewBox="0 0 33 21" fill="none" xmlns="http://www.w3.org/2000/svg">
<g clip-path="url(#clip0_211_2057)">
<path d="M30.7852 2.70105C30.7852 2.72458 30.7852 2.754 30.779 2.77166C30.7484 3.00114 30.7484 3.23062 30.7667 3.46599C30.779 3.52483 30.7913 3.58368 30.8403 3.63075C30.92 3.71901 31.0426 3.70136 31.0917 3.59544C31.1162 3.54249 31.1162 3.48953 31.1039 3.43657C31.0426 3.21297 31.0304 2.9776 31.0243 2.74812C31.0243 2.73635 31.0243 2.7187 31.0243 2.70105C31.0917 2.69516 31.153 2.68928 31.2082 2.68928C31.2511 2.68339 31.2879 2.67751 31.3186 2.65985C31.4105 2.61278 31.4105 2.51275 31.3124 2.46568C31.2756 2.44802 31.2266 2.44214 31.1837 2.44214C31.0304 2.44802 30.8771 2.44802 30.7238 2.44802C30.6687 2.44802 30.6135 2.45391 30.5583 2.45979C30.5276 2.46568 30.4909 2.46568 30.4664 2.48333C30.4234 2.50098 30.3989 2.5304 30.3989 2.57159C30.405 2.61278 30.4234 2.63632 30.4664 2.65397C30.4909 2.67163 30.5215 2.67751 30.5522 2.67751C30.6257 2.68339 30.7055 2.69516 30.7852 2.70105ZM32.4711 2.97172C32.4711 2.9776 32.4772 2.98349 32.4772 2.98349C32.5018 3.14236 32.5263 3.29535 32.5447 3.44834C32.5508 3.50129 32.557 3.54837 32.5937 3.58956C32.6734 3.68959 32.7961 3.67782 32.8512 3.57191C32.8758 3.51895 32.8819 3.46599 32.8696 3.40715C32.8328 3.23062 32.8144 3.0541 32.7777 2.88346C32.7531 2.77754 32.7225 2.67751 32.6918 2.58336C32.6734 2.52452 32.6305 2.48333 32.557 2.47745C32.4834 2.46568 32.4282 2.50098 32.3975 2.55394C32.3608 2.60101 32.3301 2.64809 32.3056 2.70105C32.2627 2.79519 32.2259 2.88934 32.1769 2.9776C32.1707 3.00114 32.1646 3.01879 32.1523 3.03644C32.1462 3.02467 32.1401 3.01879 32.1401 3.01879C32.0603 2.87169 31.9868 2.72458 31.9071 2.58336C31.8948 2.57159 31.8887 2.55982 31.8826 2.54806C31.8458 2.4951 31.8029 2.46568 31.7354 2.46568C31.6741 2.47156 31.625 2.50687 31.5944 2.55982C31.5821 2.58336 31.5821 2.60101 31.576 2.62455C31.5515 2.81285 31.5208 3.00114 31.4963 3.18943C31.484 3.29535 31.4779 3.40126 31.4779 3.50718C31.4718 3.53072 31.4779 3.56014 31.4902 3.58368C31.5025 3.63075 31.5392 3.66017 31.5883 3.66605C31.6496 3.67194 31.6925 3.65429 31.7109 3.60721C31.7293 3.57191 31.7354 3.54249 31.7416 3.51307C31.7661 3.40715 31.7845 3.30712 31.8029 3.20709C31.8151 3.14825 31.8212 3.10117 31.8397 3.03644C31.8519 3.05998 31.8641 3.07764 31.8764 3.09528C31.9316 3.1659 31.9868 3.23651 32.0542 3.29535C32.1217 3.34242 32.1769 3.33654 32.232 3.28358C32.2443 3.27181 32.2504 3.26593 32.2627 3.25416C32.3179 3.17178 32.3853 3.0894 32.4405 3.00702C32.4527 2.99525 32.4589 2.98349 32.4711 2.97172Z" fill="#3A3B7B"/>
<path d="M18.345 2.81665C18.3023 2.92848 18.2942 3.00904 18.3139 3.076C18.3356 3.16706 18.392 3.19687 18.4686 3.17371C19.1887 3.00281 20.7678 3.48791 21.3524 3.62312C21.4902 3.65151 21.6024 3.48068 21.5083 3.32753C21.371 3.1792 19.7927 2.54418 19.1904 2.50956C18.9543 2.49676 18.5323 2.43866 18.345 2.81665Z" fill="#3A3B7B"/>
<path d="M24.5163 0.761018C24.593 0.803533 24.6359 0.844088 24.6571 0.889402C24.6886 0.94884 24.672 0.989965 24.619 1.01095C24.143 1.23392 23.5096 2.19386 23.2539 2.52494C23.1919 2.6011 23.0489 2.55684 23.0273 2.43159C23.0318 2.28998 23.5933 1.24823 23.9066 0.964493C24.0298 0.853714 24.2332 0.636351 24.5163 0.761018Z" fill="#3A3B7B"/>
<path d="M20.7255 0.28851C20.8177 0.221815 20.9135 0.198443 20.9624 0.241786C21.6806 0.831286 22.0615 1.76481 22.2973 2.61943C22.3062 2.63934 22.3067 2.66792 22.2996 2.69772C22.2967 2.7232 22.2773 2.75011 22.2465 2.77093C22.2136 2.79392 22.1853 2.80092 22.1719 2.78111C21.8572 2.3702 20.0594 0.771425 20.7255 0.28851Z" fill="#3A3B7B"/>
<path d="M5.51707 10.5089C5.6892 10.386 5.87633 10.2836 6.07435 10.2041C6.28153 10.1473 6.50236 10.1567 6.70346 10.231C6.90452 10.3053 7.07497 10.4404 7.18891 10.6159C7.29084 10.791 7.33071 10.9931 7.30257 11.1919C7.27444 11.3906 7.1798 11.5751 7.03286 11.7178C6.91896 11.8334 6.78965 11.9341 6.64836 12.0173C6.01864 12.4078 5.38331 12.7768 4.74801 13.1673C4.61802 13.265 4.48011 13.3527 4.33562 13.4294C4.11583 13.5346 3.86465 13.5627 3.62551 13.509C3.38637 13.4553 3.17431 13.3231 3.026 13.1352C2.91513 13.0021 2.82155 12.8567 2.74735 12.7019C2.14548 11.4878 1.52133 10.279 0.94175 9.0434C0.674251 8.50856 0.456911 7.89344 0.245142 7.29974C0.153522 7.12724 0.13563 6.92726 0.195278 6.74228C0.254925 6.55731 0.387406 6.40197 0.564538 6.30929C0.741672 6.21662 0.94948 6.19396 1.14377 6.24607C1.33806 6.29819 1.50351 6.421 1.60492 6.58836C1.91662 6.98594 2.19255 7.40824 2.4297 7.85068C3.03157 8.9204 3.60558 9.99012 4.18515 11.0278C4.2189 11.0851 4.25611 11.1404 4.29661 11.1936C4.73284 11.0175 5.14313 10.7874 5.51707 10.5089Z" fill="#3A3B7B"/>
<path d="M11.7401 10.1358C10.3636 11.6816 8.05643 11.2911 6.89728 9.30139C6.07249 7.88934 5.9276 5.5573 7.72208 4.08641C8.10527 3.77847 8.56347 3.5687 9.05397 3.47666C9.65537 3.39391 10.2686 3.49574 10.8061 3.7676C11.3436 4.03946 11.7777 4.46742 12.0466 4.99035C13.0274 6.70194 12.8881 8.88418 11.7401 10.1358ZM11.1828 6.53077C11.0366 6.11017 10.7432 5.75109 10.3524 5.5145C10.1313 5.36324 9.86264 5.2897 9.59167 5.30626C9.32064 5.32282 9.06388 5.42848 8.8645 5.60543C8.0676 6.28473 7.90038 7.8947 8.47996 8.85212C8.55385 9.00824 8.66232 9.14697 8.7979 9.25864C8.93348 9.3703 9.09285 9.45219 9.26484 9.49853C9.43683 9.54491 9.61728 9.55464 9.79361 9.52706C9.96995 9.49944 10.1378 9.43522 10.2856 9.33883C10.7176 9.01737 11.0345 8.57474 11.1923 8.07248C11.3501 7.57017 11.341 7.03317 11.1661 6.53614L11.1828 6.53077Z" fill="#3A3B7B"/>
<path d="M17.3572 7.2047C17.2163 7.23378 17.0707 7.23553 16.929 7.20979C16.7874 7.18405 16.6525 7.13143 16.5324 7.05495C16.4273 6.99724 16.3368 6.91792 16.2675 6.82263C16.1982 6.72734 16.1517 6.61852 16.1315 6.50392C16.1112 6.38937 16.1177 6.27192 16.1504 6.16002C16.1831 6.04813 16.2413 5.94458 16.3207 5.85682C16.459 5.68047 16.6554 5.55421 16.8779 5.49847C17.459 5.33662 18.0572 5.23794 18.6613 5.20431C18.794 5.18949 18.9284 5.20027 19.0567 5.23601C19.1851 5.27179 19.3046 5.33176 19.4085 5.4125C19.5123 5.4932 19.5983 5.59303 19.6614 5.70607C19.7244 5.81911 19.7633 5.94312 19.7758 6.07079C19.95 6.69794 19.969 7.3555 19.8315 7.99099C19.33 10.0449 17.6024 10.7509 15.663 10.093C15.1187 9.9171 14.6413 9.58935 14.2921 9.15164C13.8264 8.62451 13.4961 7.9998 13.328 7.32774C13.1918 6.72927 13.2067 6.10827 13.3716 5.5165C13.5364 4.92473 13.8463 4.37937 14.2754 3.92596C14.6827 3.43316 15.2112 3.04533 15.8135 2.79738C16.1941 2.59605 16.6395 2.53881 17.0619 2.63692C17.1577 2.66238 17.2446 2.71197 17.3138 2.78056C17.3829 2.84916 17.4316 2.93424 17.4549 3.02701C17.4783 3.11978 17.4753 3.21684 17.4463 3.30814C17.4174 3.39943 17.3635 3.48163 17.2903 3.5462C17.1512 3.66711 17 3.7746 16.8389 3.86712C16.3435 4.16995 15.9123 4.56015 15.5683 5.01708C15.3428 5.31276 15.1875 5.6523 15.1134 6.01175C15.0392 6.3712 15.048 6.74189 15.1392 7.09776C15.2656 7.58296 15.5461 8.01847 15.9417 8.34397C17.1677 9.41374 18.7615 8.3814 18.4829 6.92122C18.0761 7.01752 17.7194 7.11914 17.3572 7.2047Z" fill="#3A3B7B"/>
<path d="M24.8476 10.2213C23.0365 11.2911 20.9745 10.2213 20.5231 7.9749C20.1943 6.3703 20.8185 4.12383 23.0031 3.26804C23.4679 3.08988 23.972 3.02732 24.4687 3.08618C25.0655 3.19103 25.613 3.47301 26.0339 3.89236C26.4548 4.31171 26.728 4.84726 26.8149 5.42357C27.1827 7.33303 26.3468 9.3709 24.8476 10.2213ZM25.4774 6.62166C25.4769 6.17734 25.3131 5.74737 25.0149 5.40751C24.8555 5.1973 24.625 5.04669 24.3628 4.98131C24.1006 4.91598 23.8229 4.93993 23.577 5.04917C22.5962 5.45564 21.9052 6.93188 22.156 8.0177C22.1751 8.18809 22.2328 8.35242 22.325 8.49919C22.4172 8.64595 22.5417 8.77161 22.6898 8.8674C22.8379 8.96314 23.006 9.02673 23.1823 9.05366C23.3587 9.08054 23.5391 9.07017 23.7108 9.02324C24.2292 8.84941 24.6781 8.52456 24.9948 8.094C25.3116 7.66344 25.4803 7.14869 25.4774 6.62166Z" fill="#3A3B7B"/>
<path d="M28.646 10.6707C28.6187 10.8664 28.5115 11.0437 28.3479 11.1636C28.1843 11.2835 27.9779 11.3361 27.7739 11.3098C27.5699 11.2836 27.3852 11.1806 27.2603 11.0237C27.1354 10.8667 27.0806 10.6685 27.108 10.4728C27.1353 10.277 27.2426 10.0997 27.4061 9.97981C27.5697 9.85993 27.7761 9.80735 27.9801 9.83359C28.1841 9.85984 28.3688 9.96274 28.4937 10.1197C28.6186 10.2767 28.6734 10.4749 28.646 10.6707ZM28.1612 3.45526C28.2672 3.2999 28.4227 3.18158 28.6045 3.11796C28.7863 3.05435 28.9846 3.04883 29.1699 3.10225C29.3583 3.14749 29.5247 3.25347 29.6414 3.40244C29.7581 3.55143 29.8179 3.73435 29.8108 3.9206C29.7862 4.21934 29.7397 4.51604 29.6715 4.80847C29.4876 5.798 29.3092 6.78748 29.1142 7.76632C29.025 8.15678 28.908 8.53118 28.7798 8.92697C28.7352 9.0507 28.6607 9.1625 28.5625 9.25325C28.5014 9.32151 28.4234 9.37386 28.3356 9.40547C28.2479 9.43712 28.1532 9.44699 28.0604 9.43419C27.9677 9.42139 27.8797 9.38634 27.8048 9.33229C27.7299 9.2782 27.6704 9.20686 27.6318 9.12488C27.5656 8.9778 27.5296 8.81975 27.5259 8.65955C27.5259 7.9963 27.5259 7.32773 27.5705 6.65911C27.6463 5.70496 27.7953 4.75744 28.0163 3.82432C28.0424 3.6993 28.0914 3.57975 28.1612 3.47131V3.45526Z" fill="#3A3B7B"/>
<path fill-rule="evenodd" clip-rule="evenodd" d="M3.16243 14.9688C3.09663 15.1098 3.07859 15.267 3.11074 15.4182C3.13213 15.6176 3.17912 15.8137 3.25062 16.0021C3.3399 16.2328 3.4398 16.4609 3.56298 16.742C3.5913 16.8067 3.6209 16.8742 3.65188 16.9453C3.81799 17.3262 4.02642 17.8129 4.30443 18.5174C4.38311 18.7175 4.45299 18.9192 4.52336 19.1224C4.55178 19.2045 4.58031 19.2868 4.60951 19.3694C4.71418 19.6628 4.89428 19.9264 5.13301 20.1353C5.23438 20.2501 5.36884 20.3338 5.51961 20.3757C5.67332 20.4183 5.83681 20.4156 5.98889 20.3679C6.14097 20.3202 6.27454 20.2296 6.37226 20.108C6.46807 19.9887 6.52504 19.8451 6.53612 19.6949C6.59828 19.4025 6.57706 19.0993 6.47462 18.8174C6.31202 18.3493 6.12681 17.8805 5.91322 17.422L5.91224 17.42C5.56088 16.7027 5.20372 15.9903 4.82966 15.2776L4.82686 15.2726C4.71736 15.087 4.57505 14.921 4.40634 14.7822C4.29681 14.6583 4.14572 14.5747 3.97888 14.5459C3.80847 14.5164 3.63272 14.5461 3.48301 14.6295C3.34138 14.7072 3.22911 14.8259 3.16243 14.9688Z" fill="#3A3B7B"/>
<path fill-rule="evenodd" clip-rule="evenodd" d="M8.5292 13.2024C7.97827 13.0655 7.4029 13.0455 6.84319 13.144C6.40967 13.1849 5.98329 13.2809 5.68722 13.471C5.53664 13.5678 5.41489 13.692 5.34717 13.8499C5.27908 14.0087 5.27038 14.1903 5.32619 14.3926C5.42807 14.7632 5.56038 15.1235 5.69222 15.4827L5.71358 15.5409L5.71409 15.5421C6.11107 16.5856 6.51183 17.6255 6.91624 18.6618C6.9634 18.8251 7.03009 18.9827 7.11496 19.1313L7.11655 19.134C7.22867 19.3186 7.37248 19.4837 7.5419 19.6224C7.62663 19.6987 7.73141 19.7514 7.84503 19.775C7.95976 19.7988 8.07908 19.7919 8.18999 19.755C8.30094 19.7182 8.39918 19.6528 8.47405 19.566C8.5477 19.4806 8.59594 19.3778 8.61365 19.2683C8.68674 18.9709 8.66333 18.6592 8.54649 18.3749C8.51003 18.2793 8.48143 18.1815 8.45129 18.0786C8.44124 18.0443 8.43105 18.0094 8.4203 17.9738C9.346 17.6265 10.331 17.1596 10.6773 16.0732C10.813 15.6978 10.8243 15.2912 10.7097 14.9094C10.595 14.5271 10.3597 14.1882 10.0362 13.9395C9.59586 13.5913 9.08152 13.3397 8.5292 13.2024ZM7.00209 14.5349C7.02032 14.5299 7.03869 14.5252 7.0571 14.5208C7.65977 14.4299 8.27635 14.5511 8.79335 14.8619C9.02119 15.014 9.11452 15.183 9.13055 15.3456C9.14709 15.513 9.08367 15.6944 8.95627 15.8687C8.71553 16.1981 8.27621 16.4618 7.87938 16.5109C7.59008 15.8715 7.2963 15.2062 7.00209 14.5349Z" fill="#3A3B7B"/>
<path d="M12.2021 12.0319C12.8582 11.7411 13.6709 11.6909 14.3068 11.8953C14.467 11.9401 14.606 12.037 14.6999 12.1693C14.7933 12.3009 14.8364 12.4594 14.822 12.6178C14.8211 12.7207 14.7948 12.8219 14.7453 12.9132C14.6949 13.0061 14.6219 13.086 14.5326 13.1462C14.4432 13.2064 14.3401 13.2451 14.2319 13.2589C14.1236 13.2727 14.0136 13.2613 13.9109 13.2257L13.9031 13.223L13.8958 13.2193C13.8432 13.1929 13.7874 13.173 13.7297 13.1601L13.7261 13.1593C13.2787 13.0453 12.8567 13.2342 12.7026 13.4664C12.6291 13.5771 12.62 13.6889 12.6812 13.7905C12.7467 13.8994 12.9076 14.0216 13.233 14.1086C13.3225 14.1322 13.4142 14.155 13.5073 14.1781C13.7646 14.2421 14.032 14.3085 14.2906 14.4006L14.2916 14.4009C15.4846 14.8366 15.9288 15.7389 15.7767 16.5875C15.6263 17.4267 14.896 18.1905 13.7979 18.3706C13.3983 18.4557 12.9824 18.4391 12.5915 18.3226C12.1996 18.2058 11.8463 17.9926 11.5668 17.7041L11.5595 17.6966C11.4712 17.5879 11.4119 17.4602 11.3856 17.3247C11.3614 17.2025 11.3741 17.0761 11.4222 16.9606C11.4701 16.8457 11.5511 16.7463 11.6555 16.6738C11.7659 16.5917 11.8989 16.5424 12.0381 16.5322C12.1769 16.5219 12.3157 16.5509 12.4375 16.6154C12.5592 16.6718 12.6724 16.7438 12.774 16.8294L12.776 16.831C12.9557 16.9887 13.1732 17.0298 13.3817 16.9918C13.5933 16.9531 13.7922 16.833 13.9202 16.6736C14.0473 16.5151 14.0984 16.327 14.0378 16.1443C13.9768 15.9603 13.7936 15.7541 13.391 15.5817C13.2857 15.5388 13.1766 15.5042 13.0631 15.4706C13.0324 15.4615 13.0013 15.4524 12.9698 15.4433C12.8859 15.4188 12.7995 15.3936 12.7148 15.3659C12.6565 15.3468 12.5986 15.3287 12.5413 15.3108C12.3847 15.2618 12.232 15.2141 12.0851 15.1501C11.7653 15.0456 11.489 14.8449 11.2973 14.5778C11.1049 14.3096 11.008 13.9889 11.0212 13.6635C11.0222 12.8706 11.5425 12.3243 12.2021 12.0319Z" fill="#3A3B7B"/>
<path d="M20.5198 11.9475C20.3926 11.8878 20.2519 11.8595 20.1105 11.8651C19.969 11.8707 19.8312 11.9099 19.7096 11.9794C19.5887 12.0484 19.4874 12.1451 19.4149 12.2607C19.3484 12.3581 19.3024 12.467 19.2794 12.5814C19.2565 12.6957 19.257 12.8131 19.281 12.9271C19.3047 13.0737 19.331 13.2162 19.3569 13.3567C19.3999 13.5892 19.4416 13.8165 19.4692 14.0483L19.4702 14.0542C19.533 14.4177 19.5659 14.7853 19.5688 15.1537L19.5691 15.1589C19.5905 15.5568 19.4493 15.9469 19.1757 16.2464L19.1713 16.2518C19.0823 16.3613 18.9633 16.4449 18.8275 16.4932C18.6918 16.5415 18.5447 16.5526 18.4028 16.5252C18.2609 16.4979 18.1297 16.4332 18.0239 16.3384C17.9181 16.2435 17.8417 16.122 17.8036 15.988C17.7223 15.7055 17.6753 15.415 17.6633 15.1222L17.8022 12.9997C17.8042 12.972 17.8066 12.9436 17.809 12.9149C17.8142 12.8504 17.8197 12.7848 17.8219 12.7235C17.8252 12.6334 17.8224 12.5407 17.8005 12.453C17.7781 12.3634 17.7355 12.2781 17.66 12.2055C17.5852 12.1336 17.4843 12.0805 17.3573 12.0444C17.1276 11.9806 16.9333 11.9826 16.7715 12.0486C16.6095 12.1145 16.4986 12.2369 16.4201 12.3783C16.3422 12.5185 16.2921 12.6845 16.2542 12.8507C16.2262 12.9741 16.2036 13.1036 16.1821 13.2269C16.1747 13.2694 16.1675 13.3111 16.1601 13.3516L16.1599 13.3528C16.0451 14.0288 16.011 14.7152 16.0581 15.3987C16.0669 15.7681 16.1471 16.1327 16.2948 16.4739C16.4614 16.9141 16.7632 17.2955 17.1603 17.5678C17.5583 17.8406 18.0332 17.991 18.5221 17.9989C19.0111 18.0068 19.491 17.872 19.8984 17.6123C20.305 17.353 20.6202 16.9813 20.8022 16.5464C21.0568 15.9924 21.1763 15.39 21.1517 14.7849C21.1367 14.3432 21.1117 13.8981 21.0868 13.4553C21.0745 13.238 21.0623 13.0213 21.0514 12.8058C21.0459 12.5898 20.9716 12.3805 20.8386 12.2062C20.7563 12.0959 20.6468 12.007 20.5198 11.9475Z" fill="#3A3B7B"/>
<path d="M25.0222 15.2755C25.0093 15.2912 24.9957 15.3075 24.9815 15.3244C24.878 14.7515 24.7821 14.1788 24.6861 13.6052C24.6516 13.3994 24.617 13.1927 24.5822 12.9866L24.5782 12.9636L24.5655 12.9438C24.5415 12.9064 24.5392 12.8697 24.5392 12.7915V12.7825L24.5377 12.7736C24.5117 12.6121 24.4356 12.4619 24.3194 12.3425C24.2035 12.2234 24.053 12.1406 23.8874 12.1046C23.7221 12.0655 23.5484 12.0741 23.3881 12.1294C23.2283 12.1846 23.0889 12.2838 22.9875 12.4146C22.9032 12.5149 22.8341 12.6262 22.7823 12.7451C22.6648 13.0013 22.5462 13.2581 22.4273 13.5156L22.4252 13.5201C22.1284 14.163 21.8296 14.8102 21.5395 15.4624L21.5386 15.4645C21.3605 15.8875 21.2134 16.3331 21.0669 16.7774C21.0376 16.8661 21.0084 16.9547 20.9789 17.0431C20.926 17.1833 20.9029 17.3323 20.9108 17.4811C20.9012 17.6144 20.9344 17.7474 21.0061 17.862C21.0792 17.979 21.1887 18.071 21.3191 18.1252C21.4574 18.1834 21.6119 18.1957 21.7584 18.1603C21.9045 18.1249 22.0342 18.044 22.1272 17.9302C22.2459 17.7901 22.348 17.6372 22.4313 17.4753C22.6771 16.9927 22.912 16.5043 23.1458 16.018C23.2363 15.8299 23.3242 15.6615 23.4242 15.478C23.4311 15.5006 23.4381 15.5227 23.4453 15.5448C23.5501 15.9877 23.7271 16.412 23.9696 16.8021C24.0155 16.8847 24.0794 16.9569 24.157 17.0137C24.2355 17.0713 24.3261 17.1116 24.4226 17.1321C24.519 17.1526 24.6189 17.1527 24.7154 17.1324C24.8117 17.1121 24.9026 17.0717 24.9811 17.0145L25.1366 16.9028L26.3435 15.9271L26.2721 16.3636C26.1742 16.9636 26.077 17.5587 25.9737 18.1538C25.9061 18.4176 25.9062 18.6932 25.974 18.9569C26.0033 19.1053 26.0781 19.2419 26.1888 19.3493C26.3004 19.4577 26.4433 19.5312 26.599 19.5606C26.7547 19.5899 26.9161 19.5737 27.062 19.5139C27.2059 19.455 27.3282 19.3566 27.4138 19.2311C27.6128 18.9942 27.7366 18.7073 27.7706 18.4046C27.8219 17.9772 27.8797 17.544 27.9376 17.1109C28.0043 16.6118 28.071 16.1127 28.1273 15.6232L28.1275 15.6217C28.1817 15.0859 28.2079 14.5479 28.2061 14.0096C28.218 13.8395 28.1739 13.67 28.0798 13.5252C27.9855 13.3798 27.8457 13.2668 27.6806 13.2022C27.5088 13.1272 27.3165 13.1072 27.1319 13.1451C26.9486 13.1827 26.7826 13.2755 26.6581 13.4098C26.4355 13.6074 26.2267 13.8189 26.0329 14.0428L26.0316 14.0443C25.8202 14.2972 25.6101 14.5551 25.4014 14.8113C25.2746 14.9671 25.148 15.1225 25.0222 15.2755Z" fill="#3A3B7B"/>
</g>
<defs>
<clipPath id="clip0_211_2057">
<rect width="32.7153" height="20.186" fill="white" transform="translate(0.160645 0.219788)"/>
</clipPath>
</defs>
</svg>
