<svg width="14" height="13" viewBox="0 0 14 13" fill="none" xmlns="http://www.w3.org/2000/svg">
<g clip-path="url(#clip0_4078_141)">
<path fill-rule="evenodd" clip-rule="evenodd" d="M12.4607 0.766934C12.6025 0.908743 12.6505 1.11925 12.5843 1.30854L8.92989 11.7496C8.85918 11.9516 8.6723 12.09 8.45843 12.0987C8.24456 12.1075 8.04703 11.9848 7.96009 11.7891L5.95343 7.27416L1.43845 5.2675C1.24284 5.18057 1.12013 4.98304 1.12885 4.76916C1.13758 4.55529 1.27598 4.36841 1.47801 4.2977L11.9191 0.643337C12.1083 0.577086 12.3189 0.625125 12.4607 0.766934ZM6.97162 6.99427L8.37941 10.1618L10.843 3.12285L6.97162 6.99427ZM10.1047 2.38455L3.0658 4.84819L6.23332 6.25598L10.1047 2.38455Z" fill="white"/>
</g>
<defs>
<clipPath id="clip0_4078_141">
<rect width="12.5293" height="12.5293" fill="white" transform="translate(0.606445 0.092041)"/>
</clipPath>
</defs>
</svg>
