<svg width="28" height="28" viewBox="0 0 28 28" fill="none" xmlns="http://www.w3.org/2000/svg">
<path fill-rule="evenodd" clip-rule="evenodd" d="M6.97876 0.149963C10.823 0.149963 13.9395 3.26637 13.9395 7.11066V0.149963H20.9002C24.7444 0.149963 27.8608 3.26637 27.8608 7.11066C27.8608 10.9549 24.7444 14.0714 20.9002 14.0714C24.7444 14.0714 27.8608 17.1878 27.8608 21.032C27.8608 22.9409 27.0925 24.6703 25.8482 25.9278L25.8221 25.954L25.799 25.977C24.5412 27.2231 22.8106 27.9927 20.9002 27.9927C19.0027 27.9927 17.2826 27.2335 16.027 26.0023C16.0107 25.9863 15.9944 25.9702 15.9782 25.954C15.9629 25.9388 15.9478 25.9235 15.9327 25.9081C14.6998 24.6522 13.9395 22.9309 13.9395 21.032C13.9395 24.8763 10.823 27.9927 6.97876 27.9927C3.13447 27.9927 0.0180664 24.8763 0.0180664 21.032V14.0714H6.97876C3.13447 14.0714 0.0180664 10.9549 0.0180664 7.11066C0.0180664 3.26637 3.13447 0.149963 6.97876 0.149963ZM12.5473 7.11066C12.5473 10.1861 10.0542 12.6792 6.97876 12.6792V1.5421C10.0542 1.5421 12.5473 4.03523 12.5473 7.11066ZM26.4687 21.032C26.4687 17.9566 23.9756 15.4635 20.9002 15.4635C17.8247 15.4635 15.3316 17.9566 15.3316 21.032H26.4687ZM1.41021 15.4635V21.032C1.41021 24.1075 3.90333 26.6006 6.97876 26.6006C10.0542 26.6006 12.5473 24.1075 12.5473 21.032V15.4635H1.41021ZM15.3316 12.6792V1.5421H20.9002C23.9756 1.5421 26.4687 4.03523 26.4687 7.11066C26.4687 10.1861 23.9756 12.6792 20.9002 12.6792H15.3316Z" fill="#263238"/>
</svg>
