<svg width="33" height="16" viewBox="0 0 33 16" fill="none" xmlns="http://www.w3.org/2000/svg">
<path d="M16.2786 2.91554C16.3216 2.95367 16.3517 3.00381 16.3647 3.0592C16.3778 3.11459 16.3731 3.17256 16.3516 3.22531L12.7624 15.0126C12.7172 15.1413 12.6247 15.2488 12.5031 15.3144C12.4042 15.3793 12.2896 15.4176 12.1709 15.4256H0.763384C0.665962 15.421 0.573666 15.3814 0.504117 15.3144C0.462744 15.2769 0.433707 15.2281 0.420717 15.1744C0.407727 15.1206 0.411385 15.0643 0.431202 15.0126L4.02847 3.22531C4.06992 3.095 4.15948 2.98453 4.27963 2.91554C4.38022 2.85531 4.4942 2.81987 4.61181 2.81228H16.0193C16.116 2.81319 16.2087 2.85011 16.2786 2.91554ZM10.3237 12.6376L12.4707 5.60023H6.45907L4.32013 12.6376H10.3237ZM27.1676 3.03468C27.2066 3.07902 27.2552 3.11419 27.3099 3.13756C27.3646 3.16094 27.424 3.17193 27.4836 3.16971H28.9663C29.0228 3.17025 29.0784 3.15668 29.128 3.13027C29.1777 3.10386 29.2196 3.06549 29.2499 3.01879C29.2762 2.98231 29.2948 2.94101 29.3045 2.89735C29.3143 2.85369 29.3149 2.80856 29.3065 2.76462L29.0149 0.667698C28.9871 0.570649 28.9373 0.481033 28.8691 0.405581C28.8301 0.361238 28.7815 0.326072 28.7268 0.302695C28.6721 0.279317 28.6127 0.268333 28.5531 0.270552H27.0704C27.014 0.270014 26.9583 0.283588 26.9087 0.309993C26.8591 0.336399 26.8171 0.374764 26.7869 0.421472C26.7301 0.532669 26.7058 0.604154 26.7301 0.667698L27.0299 2.76462C27.0453 2.86673 27.0936 2.96134 27.1676 3.03468ZM31.8749 0.651812C31.8471 0.554757 31.7972 0.465142 31.7291 0.389695C31.6918 0.345514 31.6446 0.310359 31.5912 0.286939C31.5378 0.263525 31.4796 0.252479 31.4212 0.254666H29.9304C29.8749 0.253116 29.82 0.266324 29.7715 0.292891C29.723 0.319458 29.6827 0.358403 29.655 0.405581C29.6011 0.476048 29.5777 0.564561 29.5902 0.651812L29.8899 2.74873C29.9087 2.84976 29.9565 2.94344 30.0277 3.01879C30.0673 3.06227 30.116 3.09684 30.1706 3.12015C30.2251 3.14345 30.2841 3.15494 30.3436 3.15381H31.8344C31.8898 3.15454 31.9444 3.14098 31.9927 3.11449C32.0411 3.088 32.0815 3.04953 32.1099 3.00291C32.1381 2.96737 32.1577 2.92609 32.1676 2.88211C32.1774 2.83814 32.177 2.79257 32.1666 2.74873L31.8749 0.651812ZM25.8632 3.82897L25.7174 2.79639H18.531C18.4181 2.80249 18.309 2.83815 18.215 2.89965C18.1553 2.93155 18.1034 2.97577 18.0628 3.02925C18.0223 3.08273 17.994 3.1442 17.9801 3.20942L17.3805 5.17925C17.3566 5.22848 17.3484 5.28371 17.357 5.33758C17.3658 5.39146 17.3909 5.44147 17.4291 5.4811C17.4974 5.54406 17.5866 5.58076 17.6803 5.58436H26.4142L24.2672 12.6218H15.5575C15.4452 12.6243 15.3359 12.6573 15.2416 12.7171C15.127 12.7884 15.0433 12.8987 15.0066 13.0268L14.399 14.9967C14.3791 15.0472 14.3739 15.1022 14.3839 15.1554C14.394 15.2087 14.4188 15.2582 14.4557 15.2985C14.5219 15.3657 14.6117 15.4055 14.7068 15.4097H26.1468C26.2651 15.3997 26.3792 15.3616 26.479 15.2985C26.5986 15.2326 26.6884 15.1248 26.7301 14.9967L30.0195 4.22611H26.3169C26.2582 4.22725 26.1999 4.21656 26.1455 4.1947C26.0912 4.17284 26.042 4.14027 26.001 4.09902C25.934 4.02699 25.8866 3.93958 25.8632 3.84486V3.82897Z" fill="white"/>
</svg>
