<svg width="29" height="20" viewBox="0 0 29 20" fill="none" xmlns="http://www.w3.org/2000/svg">
<path d="M9.83815 19.7097H12.7264L11.8856 18.8791C11.6626 18.6588 11.3601 18.5351 11.0448 18.5351H9.83815C5.24101 18.5351 1.51431 14.8538 1.51431 10.3128C1.51431 5.7717 5.24101 2.09045 9.83815 2.09045H19.3511C23.9482 2.09045 27.6749 5.7717 27.6749 10.3128C27.6749 14.8538 23.9482 18.5351 19.3511 18.5351H15.7925C15.3194 18.5351 14.8657 18.3495 14.5312 18.0191L13.5462 17.046C12.9886 16.4953 12.2325 16.1859 11.444 16.1859H9.83815C6.55446 16.1859 3.89255 13.5564 3.89255 10.3128C3.89255 7.06914 6.55446 4.43968 9.83815 4.43968H19.3511C22.6348 4.43968 25.2967 7.06914 25.2967 10.3128C25.2967 13.5564 22.6348 16.1859 19.3511 16.1859H17.0661C16.5931 16.1859 16.1394 16.0002 15.8049 15.6698L14.8197 14.6967C14.2622 14.146 13.5061 13.8366 12.7177 13.8366H9.83815C7.86797 13.8366 6.27079 12.2589 6.27079 10.3128C6.27079 8.36662 7.86797 6.78892 9.83815 6.78892H19.3511C21.3213 6.78892 22.9185 8.36662 22.9185 10.3128C22.9185 12.2352 21.36 13.7981 19.423 13.8359L19.4226 13.8366H18.5525C18.0795 13.8366 17.6258 13.651 17.2913 13.3206L16.3061 12.3475C15.8487 11.8956 15.2575 11.6062 14.6245 11.5169L14.5946 11.4874H9.83815C9.18142 11.4874 8.64903 10.9615 8.64903 10.3128C8.64903 9.66405 9.18142 9.13815 9.83815 9.13815H19.3511C20.0078 9.13815 20.5402 9.66405 20.5402 10.3128C20.5402 10.9615 20.0078 11.4874 19.3511 11.4874H16.9729L17.8137 12.318C18.0367 12.5382 18.3392 12.662 18.6545 12.662H19.3511C20.6645 12.662 21.7293 11.6102 21.7293 10.3128C21.7293 9.01534 20.6645 7.96354 19.3511 7.96354H9.83815C8.52469 7.96354 7.45991 9.01534 7.45991 10.3128C7.45991 11.6102 8.52469 12.662 9.83815 12.662H14.2041C14.6771 12.662 15.1308 12.8476 15.4653 13.178L16.4505 14.1511C17.008 14.7018 17.7641 15.0112 18.5525 15.0112H19.6484V15.0022C22.1368 14.8506 24.1076 12.809 24.1076 10.3128C24.1076 7.7179 21.978 5.6143 19.3511 5.6143H9.83815C7.21124 5.6143 5.08167 7.7179 5.08167 10.3128C5.08167 12.9077 7.21124 15.0112 9.83815 15.0112H12.7177C13.1907 15.0112 13.6444 15.1969 13.9789 15.5273L14.9641 16.5004C15.5216 17.0511 16.2777 17.3605 17.0661 17.3605H19.3511C23.2915 17.3605 26.4858 14.2051 26.4858 10.3128C26.4858 6.42042 23.2915 3.26507 19.3511 3.26507H9.83815C5.89774 3.26507 2.70343 6.42042 2.70343 10.3128C2.70343 14.2051 5.89774 17.3605 9.83815 17.3605H11.444C11.9171 17.3605 12.3708 17.5461 12.7053 17.8765L13.6904 18.8496C14.2479 19.4003 15.0041 19.7097 15.7925 19.7097H19.3511C24.605 19.7097 28.864 15.5026 28.864 10.3128C28.864 5.12298 24.605 0.915832 19.3511 0.915833L9.83815 0.915834C4.58429 0.915835 0.325195 5.12299 0.325195 10.3128C0.325196 15.5026 4.58429 19.7097 9.83815 19.7097Z" fill="#212326"/>
</svg>
