<svg width="32" height="16" viewBox="0 0 32 16" fill="none" xmlns="http://www.w3.org/2000/svg">
<path d="M15.972 2.91554C16.015 2.95367 16.045 3.00381 16.0581 3.0592C16.0711 3.11459 16.0665 3.17256 16.0449 3.22531L12.4558 15.0126C12.4106 15.1413 12.3181 15.2488 12.1965 15.3144C12.0975 15.3793 11.983 15.4176 11.8643 15.4256H0.456743C0.359321 15.421 0.267025 15.3814 0.197476 15.3144C0.156103 15.2769 0.127066 15.2281 0.114076 15.1744C0.101086 15.1206 0.104745 15.0643 0.124562 15.0126L3.72183 3.22531C3.76328 3.095 3.85284 2.98453 3.97299 2.91554C4.07358 2.85531 4.18756 2.81987 4.30517 2.81228H15.7127C15.8094 2.81319 15.902 2.85011 15.972 2.91554ZM10.017 12.6376L12.1641 5.60023H6.15243L4.01349 12.6376H10.017ZM26.861 3.03468C26.8999 3.07902 26.9486 3.11419 27.0033 3.13756C27.058 3.16094 27.1173 3.17193 27.177 3.16971H28.6597C28.7161 3.17025 28.7717 3.15668 28.8214 3.13027C28.871 3.10386 28.9129 3.06549 28.9432 3.01879C28.9695 2.98231 28.9881 2.94101 28.9979 2.89735C29.0076 2.85369 29.0083 2.80856 28.9999 2.76462L28.7083 0.667698C28.6805 0.570649 28.6306 0.481033 28.5625 0.405581C28.5235 0.361238 28.4749 0.326072 28.4202 0.302695C28.3655 0.279317 28.3061 0.268333 28.2465 0.270552H26.7638C26.7073 0.270014 26.6517 0.283588 26.6021 0.309993C26.5524 0.336399 26.5105 0.374764 26.4802 0.421472C26.4235 0.532669 26.3992 0.604154 26.4235 0.667698L26.7233 2.76462C26.7387 2.86673 26.7869 2.96134 26.861 3.03468ZM31.5683 0.651812C31.5405 0.554757 31.4906 0.465142 31.4224 0.389695C31.3851 0.345514 31.3379 0.310359 31.2845 0.286939C31.2312 0.263525 31.173 0.252479 31.1145 0.254666H29.6238C29.5683 0.253116 29.5133 0.266324 29.4648 0.292891C29.4163 0.319458 29.3761 0.358403 29.3483 0.405581C29.2944 0.476048 29.2711 0.564561 29.2835 0.651812L29.5833 2.74873C29.6021 2.84976 29.6498 2.94344 29.721 3.01879C29.7606 3.06227 29.8094 3.09684 29.8639 3.12015C29.9185 3.14345 29.9775 3.15494 30.037 3.15381H31.5277C31.5832 3.15454 31.6377 3.14098 31.686 3.11449C31.7344 3.088 31.7748 3.04953 31.8032 3.00291C31.8314 2.96737 31.8511 2.92609 31.8609 2.88211C31.8708 2.83814 31.8704 2.79257 31.8599 2.74873L31.5683 0.651812ZM25.5566 3.82897L25.4107 2.79639H18.2243C18.1115 2.80249 18.0023 2.83815 17.9083 2.89965C17.8487 2.93155 17.7967 2.97577 17.7562 3.02925C17.7156 3.08273 17.6874 3.1442 17.6734 3.20942L17.0739 5.17925C17.0499 5.22848 17.0417 5.28371 17.0504 5.33758C17.0591 5.39146 17.0842 5.44147 17.1224 5.4811C17.1908 5.54406 17.2799 5.58076 17.3736 5.58436H26.1076L23.9605 12.6218H15.2509C15.1386 12.6243 15.0292 12.6573 14.935 12.7171C14.8204 12.7884 14.7367 12.8987 14.7 13.0268L14.0923 14.9967C14.0725 15.0472 14.0673 15.1022 14.0773 15.1554C14.0873 15.2087 14.1121 15.2582 14.149 15.2985C14.2152 15.3657 14.3051 15.4055 14.4002 15.4097H25.8402C25.9585 15.3997 26.0725 15.3616 26.1723 15.2985C26.292 15.2326 26.3817 15.1248 26.4235 14.9967L29.7129 4.22611H26.0103C25.9516 4.22725 25.8932 4.21656 25.8389 4.1947C25.7845 4.17284 25.7354 4.14027 25.6944 4.09902C25.6274 4.02699 25.58 3.93958 25.5566 3.84486V3.82897Z" fill="white"/>
</svg>
