<svg width="28" height="20" viewBox="0 0 28 20" fill="none" xmlns="http://www.w3.org/2000/svg">
<path fill-rule="evenodd" clip-rule="evenodd" d="M7.04552 3.08385L0.0947266 9.96476C1.48501 11.3411 3.0732 12.501 4.80478 13.4085C5.2834 14.6653 6.03361 15.844 7.05542 16.8555C10.8997 20.6611 17.1326 20.6611 20.9768 16.8555C21.9986 15.844 22.7489 14.6653 23.2275 13.4084C24.959 12.501 26.5472 11.3411 27.9375 9.96476L20.9923 3.08944C20.9872 3.0843 20.982 3.07916 20.9768 3.07402C17.1326 -0.731623 10.8997 -0.731623 7.05542 3.07402C7.05213 3.0773 7.04882 3.08057 7.04552 3.08385ZM20.3117 14.6499C18.2862 15.3267 16.1598 15.6732 14.0161 15.6732C11.8724 15.6732 9.74615 15.3267 7.72059 14.6499C7.94006 14.9382 8.18236 15.2148 8.44756 15.4774C11.523 18.5219 16.5092 18.5219 19.5847 15.4774C19.8499 15.2148 20.0922 14.9382 20.3117 14.6499ZM8.59032 4.31434C9.11259 4.65591 9.66791 4.9482 10.249 5.18649C11.4433 5.67622 12.7234 5.92828 14.0161 5.92828C15.3089 5.92828 16.5889 5.67622 17.7832 5.18649C18.3643 4.9482 18.9196 4.65591 19.442 4.31433C16.4049 1.45359 11.6273 1.4536 8.59032 4.31434Z" fill="#3B4158"/>
</svg>
